<svg width="54" height="44" viewBox="0 0 54 44" fill="none" xmlns="http://www.w3.org/2000/svg">
<path d="M16.9497 44C10.7108 44 4.89505 42.2 0 39.0942C4.15606 39.361 11.4906 38.7221 16.0526 34.4057C9.18979 34.0933 6.09479 28.8722 5.6911 26.641C6.27421 26.8641 9.05523 27.1318 10.6252 26.5071C2.73066 24.5436 1.51957 17.6714 1.78871 15.574C3.26892 16.6004 5.78081 16.9574 6.76762 16.8682C-0.588614 11.6471 2.05784 3.7931 3.35863 2.09736C8.63773 9.35223 16.5495 13.4268 26.3373 13.6535C26.1528 12.8506 26.0553 12.0147 26.0553 11.1562C26.0553 4.9948 31.0759 0 37.2691 0C40.5049 0 43.4206 1.36353 45.4674 3.54456C47.6297 3.04194 50.884 1.86535 52.4749 0.84787C51.673 3.70385 49.1765 6.08633 47.6664 6.96936C47.6789 6.9994 47.6541 6.93919 47.6664 6.96936C48.9929 6.77033 52.5821 6.0861 54 5.13185C53.2988 6.73631 50.652 9.404 48.4799 10.8975C48.884 28.5772 35.2475 44 16.9497 44Z" fill="#47ACDF"/>
</svg>
