<svg width="49" height="49" viewBox="0 0 49 49" fill="none" xmlns="http://www.w3.org/2000/svg">
<path fill-rule="evenodd" clip-rule="evenodd" d="M24.5 47.4688C36.3396 47.4688 45.9375 37.8709 45.9375 26.0312C45.9375 14.1916 36.3396 4.59375 24.5 4.59375C12.6604 4.59375 3.0625 14.1916 3.0625 26.0312C3.0625 29.876 4.07465 33.4844 5.84704 36.6045L3.0625 47.4688L14.2634 44.8714C17.3052 46.5277 20.7927 47.4688 24.5 47.4688ZM24.5 44.1707C34.5181 44.1707 42.6394 36.0494 42.6394 26.0312C42.6394 16.0131 34.5181 7.89183 24.5 7.89183C14.4819 7.89183 6.36058 16.0131 6.36058 26.0312C6.36058 29.8993 7.57127 33.4846 9.63438 36.4288L8.00962 42.5216L14.2099 40.9716C17.1337 42.9892 20.6789 44.1707 24.5 44.1707Z" fill="#BFC8D0"/>
<path d="M42.875 24.5C42.875 34.6482 34.6482 42.875 24.5 42.875C20.6293 42.875 17.038 41.6782 14.0763 39.6343L7.79545 41.2045L9.44132 35.0326C7.35142 32.0501 6.125 28.4183 6.125 24.5C6.125 14.3518 14.3518 6.125 24.5 6.125C34.6482 6.125 42.875 14.3518 42.875 24.5Z" fill="url(#paint0_linear)"/>
<path fill-rule="evenodd" clip-rule="evenodd" d="M24.5 45.9375C36.3396 45.9375 45.9375 36.3396 45.9375 24.5C45.9375 12.6604 36.3396 3.0625 24.5 3.0625C12.6604 3.0625 3.0625 12.6604 3.0625 24.5C3.0625 28.3448 4.07465 31.9532 5.84704 35.0732L3.0625 45.9375L14.2634 43.3402C17.3052 44.9964 20.7927 45.9375 24.5 45.9375ZM24.5 42.6394C34.5181 42.6394 42.6394 34.5181 42.6394 24.5C42.6394 14.4819 34.5181 6.36058 24.5 6.36058C14.4819 6.36058 6.36058 14.4819 6.36058 24.5C6.36058 28.368 7.57127 31.9533 9.63438 34.8975L8.00962 40.9904L14.2099 39.4403C17.1337 41.4579 20.6789 42.6394 24.5 42.6394Z" fill="white"/>
<path d="M19.1407 14.5469C18.631 13.5231 17.8491 13.6137 17.0592 13.6137C15.6475 13.6137 13.4463 15.3047 13.4463 18.4517C13.4463 21.0308 14.5828 23.854 18.4124 28.0773C22.1082 32.1532 26.9644 34.2616 30.9959 34.1898C35.0274 34.118 35.8568 30.6488 35.8568 29.4772C35.8568 28.9579 35.5346 28.6988 35.3126 28.6284C33.9387 27.9691 31.4049 26.7406 30.8284 26.5098C30.2519 26.279 29.9508 26.5912 29.7637 26.761C29.2409 27.2592 28.2045 28.7276 27.8496 29.0579C27.4948 29.3881 26.9657 29.221 26.7456 29.0961C25.9354 28.7711 23.7389 27.794 21.9879 26.0967C19.8225 23.9976 19.6954 23.2754 19.2875 22.6325C18.9611 22.1182 19.2006 21.8027 19.3201 21.6648C19.7867 21.1265 20.4309 20.2953 20.7198 19.8823C21.0087 19.4693 20.7793 18.8422 20.6417 18.4517C20.0498 16.772 19.5484 15.3659 19.1407 14.5469Z" fill="white"/>
<defs>
<linearGradient id="paint0_linear" x1="40.5781" y1="10.7187" x2="6.125" y2="42.875" gradientUnits="userSpaceOnUse">
<stop stop-color="#5BD066"/>
<stop offset="1" stop-color="#27B43E"/>
</linearGradient>
</defs>
</svg>
